<?xml version="1.0" encoding="UTF-8"?>
<svg xmlns="http://www.w3.org/2000/svg" xmlns:xlink="http://www.w3.org/1999/xlink" viewBox="0 0 240 240" width="240px" height="240px">
<defs>
<linearGradient id="linear0" gradientUnits="userSpaceOnUse" x1="91.433571" y1="53.21302" x2="145.115921" y2="157.917114" gradientTransform="matrix(1.061947,0,0,1.061947,0,0)">
<stop offset="0" style="stop-color:rgb(80.392158%,82.352942%,83.92157%);stop-opacity:1;"/>
<stop offset="0.271" style="stop-color:rgb(78.431374%,80.784315%,82.352942%);stop-opacity:1;"/>
<stop offset="0.582" style="stop-color:rgb(72.941178%,75.686276%,77.64706%);stop-opacity:1;"/>
<stop offset="0.911" style="stop-color:rgb(64.313728%,67.450982%,70.19608%);stop-opacity:1;"/>
<stop offset="1" style="stop-color:rgb(61.176473%,64.705884%,67.843139%);stop-opacity:1;"/>
</linearGradient>
<linearGradient id="linear1" gradientUnits="userSpaceOnUse" x1="74.250229" y1="57.304749" x2="129.664673" y2="168.50824" gradientTransform="matrix(1.061947,0,0,1.061947,0,0)">
<stop offset="0" style="stop-color:rgb(72.156864%,73.333335%,74.901962%);stop-opacity:1;"/>
<stop offset="0.277" style="stop-color:rgb(70.19608%,71.764708%,73.333335%);stop-opacity:1;"/>
<stop offset="0.594" style="stop-color:rgb(64.705884%,67.058825%,69.01961%);stop-opacity:1;"/>
<stop offset="0.93" style="stop-color:rgb(56.078434%,59.215689%,61.56863%);stop-opacity:1;"/>
<stop offset="0.998" style="stop-color:rgb(53.725493%,57.254905%,60.000002%);stop-opacity:1;"/>
</linearGradient>
<linearGradient id="linear2" gradientUnits="userSpaceOnUse" x1="112.900749" y1="155.621536" x2="113.137672" y2="180.876266" gradientTransform="matrix(1.061947,0,0,1.061947,0,0)">
<stop offset="0.067" style="stop-color:rgb(42.745098%,45.490196%,47.450981%);stop-opacity:1;"/>
<stop offset="0.277" style="stop-color:rgb(40.784314%,43.529412%,45.490196%);stop-opacity:1;"/>
<stop offset="0.537" style="stop-color:rgb(35.294119%,37.64706%,39.607844%);stop-opacity:1;"/>
<stop offset="0.821" style="stop-color:rgb(26.666668%,28.235295%,29.803923%);stop-opacity:1;"/>
<stop offset="1" style="stop-color:rgb(19.607843%,20.784314%,21.960784%);stop-opacity:1;"/>
</linearGradient>
<linearGradient id="linear3" gradientUnits="userSpaceOnUse" x1="137.012497" y1="103.895401" x2="137.012497" y2="94.203957" gradientTransform="matrix(1.061947,0,0,1.061947,0,0)">
<stop offset="0.067" style="stop-color:rgb(42.745098%,45.490196%,47.450981%);stop-opacity:1;"/>
<stop offset="0.368" style="stop-color:rgb(34.901962%,37.254903%,38.82353%);stop-opacity:1;"/>
<stop offset="1" style="stop-color:rgb(19.607843%,20.784314%,21.960784%);stop-opacity:1;"/>
</linearGradient>
<linearGradient id="linear4" gradientUnits="userSpaceOnUse" x1="138.895081" y1="71.103928" x2="138.895081" y2="93.97023" gradientTransform="matrix(1.061947,0,0,1.061947,0,0)">
<stop offset="0.067" style="stop-color:rgb(42.745098%,45.490196%,47.450981%);stop-opacity:1;"/>
<stop offset="0.277" style="stop-color:rgb(40.784314%,43.529412%,45.490196%);stop-opacity:1;"/>
<stop offset="0.537" style="stop-color:rgb(35.294119%,37.64706%,39.607844%);stop-opacity:1;"/>
<stop offset="0.821" style="stop-color:rgb(26.666668%,28.235295%,29.803923%);stop-opacity:1;"/>
<stop offset="1" style="stop-color:rgb(19.607843%,20.784314%,21.960784%);stop-opacity:1;"/>
</linearGradient>
<linearGradient id="linear5" gradientUnits="userSpaceOnUse" x1="88.987503" y1="103.895401" x2="88.987503" y2="94.203957" gradientTransform="matrix(1.061947,0,0,1.061947,0,0)">
<stop offset="0.067" style="stop-color:rgb(42.745098%,45.490196%,47.450981%);stop-opacity:1;"/>
<stop offset="0.368" style="stop-color:rgb(34.901962%,37.254903%,38.82353%);stop-opacity:1;"/>
<stop offset="1" style="stop-color:rgb(19.607843%,20.784314%,21.960784%);stop-opacity:1;"/>
</linearGradient>
<linearGradient id="linear6" gradientUnits="userSpaceOnUse" x1="113" y1="125.352966" x2="113" y2="145.786011" gradientTransform="matrix(1.061947,0,0,1.061947,0,0)">
<stop offset="0.067" style="stop-color:rgb(42.745098%,45.490196%,47.450981%);stop-opacity:1;"/>
<stop offset="0.277" style="stop-color:rgb(40.784314%,43.529412%,45.490196%);stop-opacity:1;"/>
<stop offset="0.537" style="stop-color:rgb(35.294119%,37.64706%,39.607844%);stop-opacity:1;"/>
<stop offset="0.821" style="stop-color:rgb(26.666668%,28.235295%,29.803923%);stop-opacity:1;"/>
<stop offset="1" style="stop-color:rgb(19.607843%,20.784314%,21.960784%);stop-opacity:1;"/>
</linearGradient>
<linearGradient id="linear7" gradientUnits="userSpaceOnUse" x1="87.104919" y1="71.103928" x2="87.104919" y2="93.97023" gradientTransform="matrix(1.061947,0,0,1.061947,0,0)">
<stop offset="0.067" style="stop-color:rgb(42.745098%,45.490196%,47.450981%);stop-opacity:1;"/>
<stop offset="0.277" style="stop-color:rgb(40.784314%,43.529412%,45.490196%);stop-opacity:1;"/>
<stop offset="0.537" style="stop-color:rgb(35.294119%,37.64706%,39.607844%);stop-opacity:1;"/>
<stop offset="0.821" style="stop-color:rgb(26.666668%,28.235295%,29.803923%);stop-opacity:1;"/>
<stop offset="1" style="stop-color:rgb(19.607843%,20.784314%,21.960784%);stop-opacity:1;"/>
</linearGradient>
</defs>
<g id="surface3669634">
<path style=" stroke:none;fill-rule:nonzero;fill:rgb(40.000001%,40.000001%,40.000001%);fill-opacity:1;" d="M 0 120 C 0 53.726562 53.726562 0 120 0 C 186.273438 0 240 53.726562 240 120 C 240 186.273438 186.273438 240 120 240 C 53.726562 240 0 186.273438 0 120 Z M 120 225.601562 C 178.320312 225.601562 225.601562 178.320312 225.601562 120 C 225.601562 61.679688 178.320312 14.398438 120 14.398438 C 61.679688 14.398438 14.398438 61.679688 14.398438 120 C 14.398438 178.320312 61.679688 225.601562 120 225.601562 Z M 120 225.601562 "/>
<path style=" stroke:none;fill-rule:nonzero;fill:url(#linear0);" d="M 120 52.800781 C 140.546875 52.800781 177.800781 63.222656 177.800781 76.113281 C 177.800781 76.113281 176.347656 102.78125 174.589844 124.53125 C 171.175781 166.769531 122.257812 188.800781 120 188.800781 C 117.742188 188.800781 68.824219 166.769531 65.410156 124.53125 C 63.652344 102.777344 62.199219 76.113281 62.199219 76.113281 C 62.199219 63.222656 99.453125 52.800781 120 52.800781 Z M 120 52.800781 "/>
<path style=" stroke:none;fill-rule:nonzero;fill:url(#linear1);" d="M 92.800781 151.398438 C 92.800781 171.800781 120 171.800781 120 171.800781 L 120 188.800781 C 117.742188 188.800781 68.824219 166.769531 65.410156 124.53125 C 63.652344 102.777344 62.199219 76.113281 62.199219 76.113281 C 62.199219 69.8125 71.105469 64.109375 82.601562 59.917969 L 82.601562 83.398438 L 89.398438 80 C 89.398438 80 82.601562 86.800781 82.601562 93.601562 C 82.601562 100.398438 89.398438 103.800781 89.398438 103.800781 L 89.398438 117.398438 C 82.601562 117.398438 79.199219 110.601562 79.199219 110.601562 C 79.199219 110.601562 75.800781 114 75.800781 120.800781 C 75.800781 137.800781 89.398438 141.199219 99.601562 141.199219 C 109.800781 141.199219 120 137.800781 120 137.800781 C 113.199219 158.199219 92.800781 151.398438 92.800781 151.398438 Z M 116.601562 131 L 113.199219 97 L 109.800781 97 C 109.800781 97 109.800781 117.398438 109.800781 124.199219 C 109.800781 131 116.601562 131 116.601562 131 Z M 137 97 C 137 92.941406 138.8125 89.339844 141.632812 86.847656 C 133.402344 87.097656 126.800781 93.8125 126.800781 102.101562 C 126.800781 110.550781 133.652344 117.398438 142.101562 117.398438 C 142.679688 117.398438 143.234375 117.292969 143.800781 117.230469 L 143.800781 108.714844 C 139.75 106.355469 137 102.023438 137 97 Z M 137 97 "/>
<path style=" stroke:none;fill-rule:nonzero;fill:url(#linear2);" d="M 115.820312 165 C 114.371094 165 113.199219 166.171875 113.199219 167.621094 L 113.199219 185.398438 C 113.199219 188.800781 120 192.199219 120 192.199219 C 120 192.199219 126.800781 188.800781 126.800781 185.398438 L 126.800781 167.621094 C 126.800781 166.171875 125.628906 165 124.179688 165 Z M 115.820312 165 "/>
<path style=" stroke:none;fill-rule:nonzero;fill:url(#linear3);" d="M 145.5 100.398438 C 141.128906 100.398438 137.195312 101.8125 134.3125 104.078125 C 133.394531 104.804688 133.394531 106.195312 134.3125 106.917969 C 137.195312 109.1875 141.128906 110.601562 145.5 110.601562 C 149.871094 110.601562 153.804688 109.1875 156.6875 106.921875 C 157.605469 106.195312 157.605469 104.804688 156.6875 104.082031 C 153.804688 101.8125 149.871094 100.398438 145.5 100.398438 Z M 145.5 100.398438 "/>
<path style=" stroke:none;fill-rule:nonzero;fill:url(#linear4);" d="M 146.066406 76.601562 C 136.074219 76.601562 128.992188 86.992188 127.730469 88.972656 C 127.679688 89.046875 126.800781 90.421875 126.800781 91.898438 C 126.800781 94.714844 129.085938 97 131.898438 97 C 134.9375 97 136.304688 94.460938 136.492188 94.113281 C 136.683594 93.765625 141.402344 83.398438 149.28125 83.398438 C 157.738281 83.398438 168.199219 90.707031 168.199219 90.707031 C 168.199219 90.707031 160.175781 76.601562 146.066406 76.601562 Z M 146.066406 76.601562 "/>
<path style=" stroke:none;fill-rule:nonzero;fill:url(#linear5);" d="M 83.3125 104.078125 C 82.394531 104.804688 82.394531 106.195312 83.3125 106.917969 C 86.195312 109.1875 90.128906 110.601562 94.5 110.601562 C 98.871094 110.601562 102.804688 109.1875 105.6875 106.921875 C 106.605469 106.195312 106.605469 104.804688 105.6875 104.082031 C 102.804688 101.8125 98.871094 100.398438 94.5 100.398438 C 90.128906 100.398438 86.195312 101.8125 83.3125 104.078125 Z M 83.3125 104.078125 "/>
<path style=" stroke:none;fill-rule:nonzero;fill:url(#linear6);" d="M 160.398438 134.800781 L 148.285156 146.914062 C 147.589844 147.609375 146.648438 148 145.667969 148 L 135.449219 148 C 134.285156 148 133.1875 147.453125 132.488281 146.519531 L 124.421875 135.761719 C 123.777344 134.902344 122.769531 134.398438 121.699219 134.398438 L 118.300781 134.398438 C 117.230469 134.398438 116.222656 134.902344 115.578125 135.761719 L 107.507812 146.519531 C 106.8125 147.453125 105.714844 148 104.550781 148 L 94.332031 148 C 93.351562 148 92.414062 147.609375 91.71875 146.914062 L 79.605469 134.800781 C 78.628906 133.824219 77.066406 135.066406 77.800781 136.234375 L 88.597656 153.511719 C 89.097656 154.3125 89.972656 154.800781 90.917969 154.800781 L 110.582031 154.800781 C 112.257812 154.800781 113.867188 154.132812 115.050781 152.949219 L 120 148 L 124.949219 152.949219 C 126.132812 154.132812 127.742188 154.800781 129.417969 154.800781 L 149.082031 154.800781 C 150.027344 154.800781 150.902344 154.3125 151.402344 153.515625 L 162.199219 136.238281 C 162.933594 135.066406 161.375 133.824219 160.398438 134.800781 Z M 160.398438 134.800781 "/>
<path style=" stroke:none;fill-rule:nonzero;fill:url(#linear7);" d="M 93.933594 76.601562 C 103.925781 76.601562 111.007812 86.992188 112.269531 88.972656 C 112.320312 89.046875 113.199219 90.421875 113.199219 91.898438 C 113.199219 94.714844 110.914062 97 108.101562 97 C 105.0625 97 103.695312 94.460938 103.507812 94.113281 C 103.316406 93.765625 98.597656 83.398438 90.71875 83.398438 C 82.261719 83.398438 71.800781 90.707031 71.800781 90.707031 C 71.800781 90.707031 79.824219 76.601562 93.933594 76.601562 Z M 93.933594 76.601562 "/>
</g>
</svg>
