<?xml version="1.0" encoding="UTF-8"?>
<svg xmlns="http://www.w3.org/2000/svg" xmlns:xlink="http://www.w3.org/1999/xlink" viewBox="0 0 240 240" width="240px" height="240px">
<defs>
<linearGradient id="linear0" gradientUnits="userSpaceOnUse" x1="83.988426" y1="119.750572" x2="108.866547" y2="160.650452" gradientTransform="matrix(1.061947,0,0,1.061947,0,0)">
<stop offset="0" style="stop-color:rgb(92.156863%,65.098041%,0%);stop-opacity:1;"/>
<stop offset="1" style="stop-color:rgb(76.078433%,50.980395%,0%);stop-opacity:1;"/>
</linearGradient>
</defs>
<g id="surface3664907">
<path style=" stroke:none;fill-rule:nonzero;fill:rgb(40.000001%,40.000001%,40.000001%);fill-opacity:1;" d="M 6 120 C 6 57.039062 57.039062 6 120 6 C 182.960938 6 234 57.039062 234 120 C 234 182.960938 182.960938 234 120 234 C 57.039062 234 6 182.960938 6 120 Z M 120 219.601562 C 175.007812 219.601562 219.601562 175.007812 219.601562 120 C 219.601562 64.992188 175.007812 20.398438 120 20.398438 C 64.992188 20.398438 20.398438 64.992188 20.398438 120 C 20.398438 175.007812 64.992188 219.601562 120 219.601562 Z M 120 219.601562 "/>
<path style="fill:none;stroke-width:7.0625;stroke-linecap:round;stroke-linejoin:round;stroke:rgb(39.215687%,44.313726%,48.627451%);stroke-opacity:1;stroke-miterlimit:10;" d="M 118.65 65.563542 C 118.65 59.130046 123.869629 53.910417 130.303125 53.910417 " transform="matrix(1.061947,0,0,1.061947,0,0)"/>
<path style="fill:none;stroke-width:7.0625;stroke-linecap:round;stroke-linejoin:round;stroke:rgb(39.215687%,44.313726%,48.627451%);stroke-opacity:1;stroke-miterlimit:10;" d="M 108.291667 62.973958 C 108.291667 56.540462 113.511296 51.320833 119.944792 51.320833 " transform="matrix(1.061947,0,0,1.061947,0,0)"/>
<path style=" stroke:none;fill-rule:nonzero;fill:rgb(100%,81.568629%,0%);fill-opacity:1;" d="M 153.496094 87.5 C 153.496094 66.96875 133.882812 60.015625 117.566406 60.015625 C 95.75 60.015625 89.933594 86.960938 89.933594 86.960938 C 89.296875 88.507812 84.75 89.792969 84.75 94.015625 C 84.921875 96.109375 86.277344 97.875 87.5 98.5 C 86.03125 112.867188 86.511719 129.90625 90.800781 139.570312 C 95.75 153.5 98.5 159.925781 98.5 167.25 L 98.5 175.5 L 145.25 175.5 C 145.25 175.5 139.75 162.847656 139.75 139.75 C 139.75 116.652344 153.496094 105.464844 153.496094 87.5 Z M 153.496094 87.5 "/>
<path style=" stroke:none;fill-rule:nonzero;fill:rgb(93.333334%,93.333334%,93.333334%);fill-opacity:1;" d="M 104 108.125 C 104 114.960938 98.460938 120.5 91.625 120.5 C 84.789062 120.5 79.25 114.960938 79.25 108.125 C 79.25 101.289062 84.789062 95.75 91.625 95.75 C 98.460938 95.75 104 101.289062 104 108.125 Z M 104 108.125 "/>
<path style=" stroke:none;fill-rule:nonzero;fill:rgb(12.941177%,12.941177%,12.941177%);fill-opacity:1;" d="M 93 112.25 C 93 113.769531 91.769531 115 90.25 115 C 88.730469 115 87.5 113.769531 87.5 112.25 C 87.5 110.730469 88.730469 109.5 90.25 109.5 C 91.769531 109.5 93 110.730469 93 112.25 Z M 93 112.25 "/>
<path style=" stroke:none;fill-rule:nonzero;fill:url(#linear0);" d="M 98.5 126 C 90.25 126 79.25 130.035156 79.25 148 C 77.78125 148.703125 76.625 149.40625 76.503906 151.03125 C 76.503906 153.597656 79.25 159 90.25 159 C 90.25 159 90.113281 163.453125 95.75 164.5 C 97.484375 168.675781 102.40625 170.136719 106.75 170 C 117.929688 170.164062 128.75 161.929688 128.75 150.75 C 128.75 139.75 115.179688 126 98.5 126 Z M 98.5 126 "/>
<path style=" stroke:none;fill-rule:nonzero;fill:rgb(100%,81.568629%,0%);fill-opacity:1;" d="M 148.363281 134.25 C 148.363281 138.804688 144.667969 142.5 140.113281 142.5 C 135.554688 142.5 131.863281 138.804688 131.863281 134.25 C 131.863281 129.695312 135.554688 126 140.113281 126 C 144.667969 126 148.363281 129.695312 148.363281 134.25 Z M 148.363281 134.25 "/>
<path style=" stroke:none;fill-rule:nonzero;fill:rgb(61.960787%,41.960785%,13.725491%);fill-opacity:1;" d="M 114.167969 154.386719 C 114.167969 154.386719 104.039062 158.648438 89.246094 158.96875 C 89.578125 158.980469 89.898438 159 90.25 159 C 90.25 159 90.113281 163.453125 95.75 164.5 C 108.027344 164.5 115.707031 157.519531 115.707031 157.519531 Z M 114.167969 154.386719 "/>
<path style=" stroke:none;fill-rule:nonzero;fill:rgb(76.862746%,56.078434%,4.705882%);fill-opacity:1;" d="M 142.5 134.25 C 142.394531 135.722656 141.222656 136.894531 139.75 137 L 137 137 C 137 137 137 131.5 139.75 131.5 C 141.222656 131.605469 142.394531 132.777344 142.5 134.25 Z M 142.5 134.25 "/>
<path style="fill:none;stroke-width:7.0625;stroke-linecap:round;stroke-linejoin:round;stroke:rgb(39.215687%,44.313726%,48.627451%);stroke-opacity:1;stroke-miterlimit:10;" d="M 141.95625 113.470833 L 139.366667 103.1125 L 134.180143 111.13138 L 131.597917 100.522917 L 123.829167 110.88125 " transform="matrix(1.061947,0,0,1.061947,0,0)"/>
<path style=" stroke:none;fill-rule:nonzero;fill:rgb(100%,81.568629%,0%);fill-opacity:1;" d="M 117.75 128.75 L 87.5 128.75 C 84.460938 128.75 82 126.289062 82 123.25 C 82 120.210938 84.460938 117.75 87.5 117.75 L 117.75 117.75 Z M 117.75 128.75 "/>
<path style=" stroke:none;fill-rule:nonzero;fill:rgb(93.333334%,93.333334%,93.333334%);fill-opacity:1;" d="M 126 112.25 C 126 119.84375 119.84375 126 112.25 126 C 104.65625 126 98.5 119.84375 98.5 112.25 C 98.5 104.65625 104.65625 98.5 112.25 98.5 C 119.84375 98.5 126 104.65625 126 112.25 Z M 126 112.25 "/>
<path style=" stroke:none;fill-rule:nonzero;fill:rgb(12.941177%,12.941177%,12.941177%);fill-opacity:1;" d="M 117.75 115 C 117.75 116.519531 116.519531 117.75 115 117.75 C 113.480469 117.75 112.25 116.519531 112.25 115 C 112.25 113.480469 113.480469 112.25 115 112.25 C 116.519531 112.25 117.75 113.480469 117.75 115 Z M 117.75 115 "/>
<path style=" stroke:none;fill-rule:nonzero;fill:rgb(61.960787%,41.960785%,13.725491%);fill-opacity:1;" d="M 114.925781 160.171875 C 117.085938 159.441406 118.238281 157.097656 117.507812 154.941406 C 116.777344 152.785156 114.433594 151.628906 112.277344 152.359375 Z M 114.925781 160.171875 "/>
<path style="fill:none;stroke-width:7.0625;stroke-linecap:round;stroke-linejoin:round;stroke:rgb(39.215687%,44.313726%,48.627451%);stroke-opacity:1;stroke-miterlimit:10;" d="M 119.944792 51.320833 C 126.378288 51.320833 131.597917 56.540462 131.597917 62.973958 C 131.597917 65.103743 131.024089 67.101107 130.027246 68.818913 " transform="matrix(1.061947,0,0,1.061947,0,0)"/>
<path style="fill:none;stroke-width:7.0625;stroke-linecap:round;stroke-linejoin:round;stroke:rgb(39.215687%,44.313726%,48.627451%);stroke-opacity:1;stroke-miterlimit:10;" d="M 130.303125 53.910417 C 136.736621 53.910417 141.95625 59.130046 141.95625 65.563542 C 141.95625 67.693327 141.382422 69.69069 140.385579 71.408496 " transform="matrix(1.061947,0,0,1.061947,0,0)"/>
</g>
</svg>
