<?xml version="1.0" encoding="UTF-8"?>
<svg xmlns="http://www.w3.org/2000/svg" xmlns:xlink="http://www.w3.org/1999/xlink" viewBox="0 0 240 240" width="240px" height="240px">
<defs>
<linearGradient id="linear0" gradientUnits="userSpaceOnUse" x1="110.464279" y1="46.040649" x2="117.776894" y2="179.50853" gradientTransform="matrix(1.061947,0,0,1.061947,0,0)">
<stop offset="0" style="stop-color:rgb(89.803922%,12.54902%,18.82353%);stop-opacity:1;"/>
<stop offset="0.393" style="stop-color:rgb(82.745099%,12.54902%,18.82353%);stop-opacity:1;"/>
<stop offset="1" style="stop-color:rgb(68.627453%,12.54902%,19.215687%);stop-opacity:1;"/>
</linearGradient>
</defs>
<g id="surface3606299">
<path style=" stroke:none;fill-rule:nonzero;fill:rgb(40.000001%,40.000001%,40.000001%);fill-opacity:1;" d="M 0 120 C 0 53.726562 53.726562 0 120 0 C 186.273438 0 240 53.726562 240 120 C 240 186.273438 186.273438 240 120 240 C 53.726562 240 0 186.273438 0 120 Z M 120 225.601562 C 178.320312 225.601562 225.601562 178.320312 225.601562 120 C 225.601562 61.679688 178.320312 14.398438 120 14.398438 C 61.679688 14.398438 14.398438 61.679688 14.398438 120 C 14.398438 178.320312 61.679688 225.601562 120 225.601562 Z M 120 225.601562 "/>
<path style=" stroke:none;fill-rule:nonzero;fill:rgb(53.333336%,7.843138%,12.941177%);fill-opacity:1;" d="M 157.398438 130.199219 L 171.074219 130.199219 C 172.183594 130.199219 173.292969 129.09375 173.292969 127.984375 L 174.398438 98.417969 C 174.398438 97.308594 173.292969 96.199219 172.183594 96.199219 L 160.800781 96.199219 Z M 157.398438 130.199219 "/>
<path style=" stroke:none;fill-rule:nonzero;fill:rgb(53.333336%,7.843138%,12.941177%);fill-opacity:1;" d="M 72.398438 96.199219 L 67.816406 96.199219 C 66.707031 96.199219 65.601562 97.308594 65.601562 98.417969 L 66.707031 127.984375 C 66.707031 129.09375 67.816406 130.199219 68.925781 130.199219 L 75.800781 130.199219 Z M 72.398438 96.199219 "/>
<path style=" stroke:none;fill-rule:nonzero;fill:url(#linear0);" d="M 171 97.871094 C 170.273438 92.515625 169.175781 70.023438 163.714844 62.882812 C 144.410156 47.894531 120 48.605469 120 48.605469 C 120 48.605469 95.589844 47.894531 76.285156 62.886719 C 71.1875 70.027344 69.363281 92.519531 69 97.875 L 70.824219 130.71875 L 70.824219 131.429688 C 70.824219 131.429688 77.746094 161.0625 80.660156 166.058594 C 83.9375 172.484375 93.773438 184.625 101.785156 189.265625 C 105.0625 191.042969 113.808594 191.398438 120 191.398438 C 126.921875 191.398438 135.300781 190.6875 138.214844 189.257812 C 146.226562 185.332031 155.699219 172.835938 159.339844 166.054688 C 162.253906 161.054688 169.175781 131.425781 169.175781 131.425781 L 169.175781 130.710938 Z M 171 97.871094 "/>
<path style=" stroke:none;fill-rule:nonzero;fill:rgb(100%,81.568629%,0%);fill-opacity:1;" d="M 157.675781 133.800781 C 155.9375 135.90625 145.871094 155.542969 145.871094 155.542969 C 145.871094 155.542969 144.132812 163.257812 145.871094 170.273438 C 147.609375 177.285156 144.132812 177.988281 144.132812 177.988281 L 139.964844 182.898438 L 132.324219 179.746094 L 109.058594 179.746094 L 101.421875 182.898438 L 97.253906 177.992188 C 97.253906 177.992188 94.128906 177.289062 95.515625 170.277344 C 97.253906 163.261719 95.515625 155.546875 95.515625 155.546875 C 95.515625 155.546875 83.710938 136.257812 81.972656 133.804688 C 80.242188 131.695312 79.199219 123.976562 79.199219 123.976562 L 83.367188 111.703125 L 82.328125 74.527344 C 82.328125 74.527344 85.453125 69.617188 89.96875 66.464844 C 93.78125 63.65625 104.546875 60.5 104.546875 60.5 L 108.363281 87.855469 C 108.363281 87.855469 109.40625 93.820312 109.40625 94.171875 C 109.40625 94.871094 113.222656 95.925781 113.222656 95.925781 L 127.460938 95.925781 C 127.460938 95.925781 131.277344 94.875 131.277344 94.171875 C 131.277344 93.464844 132.316406 87.855469 132.316406 87.855469 L 136.148438 60.5 C 136.148438 60.5 146.910156 63.304688 150.730469 66.464844 C 153.855469 69.617188 157.675781 74.527344 157.675781 74.527344 L 156.636719 111.355469 L 160.800781 123.628906 C 160.453125 123.976562 159.410156 131.695312 157.675781 133.800781 Z M 157.675781 133.800781 "/>
<path style=" stroke:none;fill-rule:nonzero;fill:rgb(20.784314%,75.686276%,94.509804%);fill-opacity:1;" d="M 125.710938 127.859375 C 125.710938 127.859375 127.855469 131.070312 128.566406 131.785156 C 129.28125 132.855469 130.710938 132.855469 130.710938 132.855469 L 141.777344 132.140625 C 141.777344 132.140625 143.917969 132.140625 144.988281 131.070312 C 146.773438 130.355469 152.84375 126.785156 155.699219 125 C 156.769531 124.289062 155.699219 123.214844 155.699219 123.214844 L 151.414062 120.003906 C 151.414062 120.003906 150.703125 119.289062 149.632812 120.003906 C 146.417969 121.074219 136.421875 125.359375 126.78125 126.074219 C 123.925781 126.429688 125.710938 127.859375 125.710938 127.859375 Z M 125.710938 127.859375 "/>
<path style=" stroke:none;fill-rule:nonzero;fill:rgb(20.784314%,75.686276%,94.509804%);fill-opacity:1;" d="M 114.289062 127.859375 C 114.289062 127.859375 112.144531 131.070312 111.433594 131.785156 C 110.71875 132.855469 109.289062 132.855469 109.289062 132.855469 L 98.222656 132.140625 C 98.222656 132.140625 96.082031 132.140625 95.011719 131.070312 C 93.226562 130.355469 87.15625 126.785156 84.300781 125 C 83.230469 124.289062 84.300781 123.214844 84.300781 123.214844 L 88.585938 120.003906 C 88.585938 120.003906 89.296875 119.289062 90.367188 120.003906 C 93.582031 121.074219 103.578125 125.359375 113.21875 126.074219 C 116.074219 126.429688 114.289062 127.859375 114.289062 127.859375 Z M 114.289062 127.859375 "/>
<path style=" stroke:none;fill-rule:nonzero;fill:rgb(70.980394%,96.078432%,100%);fill-opacity:1;" d="M 132.851562 129.644531 L 142.132812 129.644531 L 151.058594 124.289062 L 148.558594 120.359375 C 144.988281 121.789062 137.851562 124.644531 130.351562 125.714844 Z M 109.648438 125.714844 C 102.148438 124.644531 95.011719 121.789062 91.441406 120.359375 L 88.941406 124.289062 L 97.867188 129.644531 L 107.148438 129.644531 Z M 109.648438 125.714844 "/>
</g>
</svg>
