<?xml version="1.0" encoding="UTF-8"?>
<svg xmlns="http://www.w3.org/2000/svg" xmlns:xlink="http://www.w3.org/1999/xlink" viewBox="0 0 240 240" width="240px" height="240px">
<defs>
<linearGradient id="linear0" gradientUnits="userSpaceOnUse" x1="113" y1="184.190002" x2="113" y2="49.720001" gradientTransform="matrix(1.061947,0,0,1.061947,0,0)">
<stop offset="0" style="stop-color:rgb(100%,85.490197%,58.039218%);stop-opacity:1;"/>
<stop offset="1" style="stop-color:rgb(100%,94.117647%,80.784315%);stop-opacity:1;"/>
</linearGradient>
<linearGradient id="linear1" gradientUnits="userSpaceOnUse" x1="113" y1="100.946671" x2="113" y2="123.35833" gradientTransform="matrix(1.061947,0,0,1.061947,0,0)">
<stop offset="0" style="stop-color:rgb(36.862746%,36.862746%,36.862746%);stop-opacity:1;"/>
<stop offset="1" style="stop-color:rgb(32.941177%,32.941177%,32.941177%);stop-opacity:1;"/>
</linearGradient>
<linearGradient id="linear2" gradientUnits="userSpaceOnUse" x1="113" y1="46.51833" x2="113" y2="120.15667" gradientTransform="matrix(1.061947,0,0,1.061947,0,0)">
<stop offset="0" style="stop-color:rgb(36.862746%,36.862746%,36.862746%);stop-opacity:1;"/>
<stop offset="1" style="stop-color:rgb(32.941177%,32.941177%,32.941177%);stop-opacity:1;"/>
</linearGradient>
</defs>
<g id="surface3668873">
<path style=" stroke:none;fill-rule:nonzero;fill:rgb(40.000001%,40.000001%,40.000001%);fill-opacity:1;" d="M 0 120 C 0 53.726562 53.726562 0 120 0 C 186.273438 0 240 53.726562 240 120 C 240 186.273438 186.273438 240 120 240 C 53.726562 240 0 186.273438 0 120 Z M 120 225.601562 C 178.320312 225.601562 225.601562 178.320312 225.601562 120 C 225.601562 61.679688 178.320312 14.398438 120 14.398438 C 61.679688 14.398438 14.398438 61.679688 14.398438 120 C 14.398438 178.320312 61.679688 225.601562 120 225.601562 Z M 120 225.601562 "/>
<path style=" stroke:none;fill-rule:nonzero;fill:url(#linear0);" d="M 120 52.800781 C 71.378906 52.800781 62.199219 84.761719 62.199219 124.199219 C 62.199219 163.640625 92.460938 195.601562 120 195.601562 C 147.539062 195.601562 177.800781 163.640625 177.800781 124.199219 C 177.800781 84.761719 168.621094 52.800781 120 52.800781 Z M 120 52.800781 "/>
<path style=" stroke:none;fill-rule:nonzero;fill:rgb(81.176472%,9.803922%,15.686275%);fill-opacity:1;" d="M 143.316406 95.285156 L 120.390625 107.007812 C 120.144531 107.132812 119.855469 107.132812 119.613281 107.007812 L 96.6875 95.285156 C 95.808594 94.835938 96.214844 93.484375 97.183594 93.605469 L 119.894531 96.511719 C 119.964844 96.519531 120.039062 96.519531 120.113281 96.511719 L 142.824219 93.605469 C 143.789062 93.484375 144.191406 94.839844 143.316406 95.285156 Z M 93.96875 157.699219 L 106.265625 135.886719 C 106.804688 134.925781 105.628906 133.929688 104.792969 134.632812 L 86.351562 150.21875 C 85.90625 150.589844 85.878906 151.265625 86.285156 151.675781 L 92.433594 157.90625 C 92.886719 158.371094 93.648438 158.269531 93.96875 157.699219 Z M 153.648438 150.214844 L 135.207031 134.632812 C 134.371094 133.925781 133.195312 134.925781 133.734375 135.886719 L 146.03125 157.699219 C 146.351562 158.269531 147.113281 158.371094 147.566406 157.90625 L 153.714844 151.675781 C 154.117188 151.265625 154.089844 150.589844 153.648438 150.214844 Z M 153.648438 150.214844 "/>
<path style=" stroke:none;fill-rule:nonzero;fill:url(#linear1);" d="M 109.800781 117.398438 C 109.800781 124.878906 103.679688 131 96.199219 131 C 85.660156 131 79.199219 121.480469 79.199219 114 C 79.199219 108.21875 86.679688 107.199219 93.820312 107.199219 L 99.601562 107.199219 C 107.078125 107.199219 109.800781 109.921875 109.800781 117.398438 Z M 130.199219 117.398438 C 130.199219 124.878906 136.320312 131 143.800781 131 C 154.339844 131 160.800781 121.480469 160.800781 114 C 160.800781 108.21875 153.320312 107.199219 146.179688 107.199219 L 140.398438 107.199219 C 132.921875 107.199219 130.199219 109.921875 130.199219 117.398438 Z M 130.199219 117.398438 "/>
<path style=" stroke:none;fill-rule:nonzero;fill:url(#linear2);" d="M 126.800781 69.800781 L 113.199219 69.800781 C 111.324219 69.800781 109.800781 68.277344 109.800781 66.398438 L 109.800781 53.140625 C 109.800781 51.082031 111.484375 49.398438 113.539062 49.398438 L 126.460938 49.398438 C 128.515625 49.398438 130.199219 51.082031 130.199219 53.140625 L 130.199219 66.398438 C 130.199219 68.277344 128.675781 69.800781 126.800781 69.800781 Z M 59.140625 107.199219 C 57.082031 107.199219 55.398438 108.882812 55.398438 110.941406 L 55.398438 123.859375 C 55.398438 125.917969 57.082031 127.601562 59.140625 127.601562 L 69 127.601562 C 70.875 127.601562 72.398438 126.078125 72.398438 124.199219 L 72.398438 110.601562 C 72.398438 108.722656 70.875 107.199219 69 107.199219 Z M 167.601562 110.601562 L 167.601562 124.199219 C 167.601562 126.078125 169.125 127.601562 171 127.601562 L 180.859375 127.601562 C 182.917969 127.601562 184.601562 125.917969 184.601562 123.859375 L 184.601562 110.941406 C 184.601562 108.882812 182.917969 107.199219 180.859375 107.199219 L 171 107.199219 C 169.125 107.199219 167.601562 108.722656 167.601562 110.601562 Z M 167.601562 110.601562 "/>
<path style=" stroke:none;fill-rule:nonzero;fill:rgb(45.882353%,10.588235%,4.313726%);fill-opacity:1;" d="M 89.398438 73.199219 C 89.398438 75.238281 88.039062 76.601562 86 76.601562 C 83.960938 76.601562 82.601562 75.238281 82.601562 73.199219 C 82.601562 71.160156 83.960938 69.800781 86 69.800781 C 88.039062 69.800781 89.398438 71.160156 89.398438 73.199219 Z M 86 83.398438 C 83.960938 83.398438 82.601562 84.761719 82.601562 86.800781 C 82.601562 88.839844 83.960938 90.199219 86 90.199219 C 88.039062 90.199219 89.398438 88.839844 89.398438 86.800781 C 89.398438 84.761719 88.039062 83.398438 86 83.398438 Z M 75.800781 93.601562 C 73.761719 93.601562 72.398438 94.960938 72.398438 97 C 72.398438 99.039062 73.761719 100.398438 75.800781 100.398438 C 77.839844 100.398438 79.199219 99.039062 79.199219 97 C 79.199219 94.960938 77.839844 93.601562 75.800781 93.601562 Z M 137 80 C 134.960938 80 133.601562 81.359375 133.601562 83.398438 C 133.601562 85.441406 134.960938 86.800781 137 86.800781 C 139.039062 86.800781 140.398438 85.441406 140.398438 83.398438 C 140.398438 81.359375 139.039062 80 137 80 Z M 120 80 C 117.960938 80 116.601562 81.359375 116.601562 83.398438 C 116.601562 85.441406 117.960938 86.800781 120 86.800781 C 122.039062 86.800781 123.398438 85.441406 123.398438 83.398438 C 123.398438 81.359375 122.039062 80 120 80 Z M 103 80 C 100.960938 80 99.601562 81.359375 99.601562 83.398438 C 99.601562 85.441406 100.960938 86.800781 103 86.800781 C 105.039062 86.800781 106.398438 85.441406 106.398438 83.398438 C 106.398438 81.359375 105.039062 80 103 80 Z M 150.601562 73.199219 C 150.601562 75.238281 151.960938 76.601562 154 76.601562 C 156.039062 76.601562 157.398438 75.238281 157.398438 73.199219 C 157.398438 71.160156 156.039062 69.800781 154 69.800781 C 151.960938 69.800781 150.601562 71.160156 150.601562 73.199219 Z M 150.601562 86.800781 C 150.601562 88.839844 151.960938 90.199219 154 90.199219 C 156.039062 90.199219 157.398438 88.839844 157.398438 86.800781 C 157.398438 84.761719 156.039062 83.398438 154 83.398438 C 151.960938 83.398438 150.601562 84.761719 150.601562 86.800781 Z M 160.800781 97 C 160.800781 99.039062 162.160156 100.398438 164.199219 100.398438 C 166.238281 100.398438 167.601562 99.039062 167.601562 97 C 167.601562 94.960938 166.238281 93.601562 164.199219 93.601562 C 162.160156 93.601562 160.800781 94.960938 160.800781 97 Z M 120 141.199219 C 117.960938 141.199219 116.601562 142.558594 116.601562 144.601562 C 116.601562 146.640625 117.960938 148 120 148 C 122.039062 148 123.398438 146.640625 123.398438 144.601562 C 123.398438 142.558594 122.039062 141.199219 120 141.199219 Z M 109.800781 154.800781 C 107.761719 154.800781 106.398438 156.160156 106.398438 158.199219 C 106.398438 160.238281 107.761719 161.601562 109.800781 161.601562 C 111.839844 161.601562 113.199219 160.238281 113.199219 158.199219 C 113.199219 156.160156 111.839844 154.800781 109.800781 154.800781 Z M 130.199219 154.800781 C 128.160156 154.800781 126.800781 156.160156 126.800781 158.199219 C 126.800781 160.238281 128.160156 161.601562 130.199219 161.601562 C 132.238281 161.601562 133.601562 160.238281 133.601562 158.199219 C 133.601562 156.160156 132.238281 154.800781 130.199219 154.800781 Z M 109.800781 168.398438 C 107.761719 168.398438 106.398438 169.761719 106.398438 171.800781 C 106.398438 173.839844 107.761719 175.199219 109.800781 175.199219 C 111.839844 175.199219 113.199219 173.839844 113.199219 171.800781 C 113.199219 169.761719 111.839844 168.398438 109.800781 168.398438 Z M 130.199219 168.398438 C 128.160156 168.398438 126.800781 169.761719 126.800781 171.800781 C 126.800781 173.839844 128.160156 175.199219 130.199219 175.199219 C 132.238281 175.199219 133.601562 173.839844 133.601562 171.800781 C 133.601562 169.761719 132.238281 168.398438 130.199219 168.398438 Z M 109.800781 182 C 107.761719 182 106.398438 183.359375 106.398438 185.398438 C 106.398438 187.441406 107.761719 188.800781 109.800781 188.800781 C 111.839844 188.800781 113.199219 187.441406 113.199219 185.398438 C 113.199219 183.359375 111.839844 182 109.800781 182 Z M 130.199219 182 C 128.160156 182 126.800781 183.359375 126.800781 185.398438 C 126.800781 187.441406 128.160156 188.800781 130.199219 188.800781 C 132.238281 188.800781 133.601562 187.441406 133.601562 185.398438 C 133.601562 183.359375 132.238281 182 130.199219 182 Z M 92.800781 168.398438 C 90.761719 168.398438 89.398438 169.761719 89.398438 171.800781 C 89.398438 173.839844 90.761719 175.199219 92.800781 175.199219 C 94.839844 175.199219 96.199219 173.839844 96.199219 171.800781 C 96.199219 169.761719 94.839844 168.398438 92.800781 168.398438 Z M 147.199219 168.398438 C 145.160156 168.398438 143.800781 169.761719 143.800781 171.800781 C 143.800781 173.839844 145.160156 175.199219 147.199219 175.199219 C 149.238281 175.199219 150.601562 173.839844 150.601562 171.800781 C 150.601562 169.761719 149.238281 168.398438 147.199219 168.398438 Z M 164.199219 148 C 162.160156 148 160.800781 149.359375 160.800781 151.398438 C 160.800781 153.441406 162.160156 154.800781 164.199219 154.800781 C 166.238281 154.800781 167.601562 153.441406 167.601562 151.398438 C 167.601562 149.359375 166.238281 148 164.199219 148 Z M 164.199219 131 C 162.160156 131 160.800781 132.359375 160.800781 134.398438 C 160.800781 136.441406 162.160156 137.800781 164.199219 137.800781 C 166.238281 137.800781 167.601562 136.441406 167.601562 134.398438 C 167.601562 132.359375 166.238281 131 164.199219 131 Z M 75.800781 148 C 73.761719 148 72.398438 149.359375 72.398438 151.398438 C 72.398438 153.441406 73.761719 154.800781 75.800781 154.800781 C 77.839844 154.800781 79.199219 153.441406 79.199219 151.398438 C 79.199219 149.359375 77.839844 148 75.800781 148 Z M 75.800781 131 C 73.761719 131 72.398438 132.359375 72.398438 134.398438 C 72.398438 136.441406 73.761719 137.800781 75.800781 137.800781 C 77.839844 137.800781 79.199219 136.441406 79.199219 134.398438 C 79.199219 132.359375 77.839844 131 75.800781 131 Z M 75.800781 131 "/>
</g>
</svg>
