<?xml version="1.0" encoding="UTF-8"?>
<svg xmlns="http://www.w3.org/2000/svg" xmlns:xlink="http://www.w3.org/1999/xlink" viewBox="0 0 240 240" width="240px" height="240px">
<defs>
<linearGradient id="linear0" gradientUnits="userSpaceOnUse" x1="113" y1="47.107441" x2="113" y2="119.247391" gradientTransform="matrix(1.061947,0,0,1.061947,0,0)">
<stop offset="0" style="stop-color:rgb(12.941177%,67.843139%,39.215687%);stop-opacity:1;"/>
<stop offset="1" style="stop-color:rgb(3.137255%,50.980395%,25.882354%);stop-opacity:1;"/>
</linearGradient>
<linearGradient id="linear1" gradientUnits="userSpaceOnUse" x1="149.383743" y1="135.620728" x2="159.395355" y2="136.9366" gradientTransform="matrix(1.061947,0,0,1.061947,0,0)">
<stop offset="0" style="stop-color:rgb(76.862746%,56.078434%,4.705882%);stop-opacity:1;"/>
<stop offset="0.251" style="stop-color:rgb(81.960785%,60.784316%,8.627451%);stop-opacity:1;"/>
<stop offset="0.619" style="stop-color:rgb(86.274511%,64.705884%,12.156863%);stop-opacity:1;"/>
<stop offset="1" style="stop-color:rgb(87.843138%,66.274512%,13.333334%);stop-opacity:1;"/>
</linearGradient>
<linearGradient id="linear2" gradientUnits="userSpaceOnUse" x1="76.065567" y1="135.034805" x2="65.250343" y2="135.614304" gradientTransform="matrix(1.061947,0,0,1.061947,0,0)">
<stop offset="0" style="stop-color:rgb(76.862746%,56.078434%,4.705882%);stop-opacity:1;"/>
<stop offset="0.251" style="stop-color:rgb(81.960785%,60.784316%,8.627451%);stop-opacity:1;"/>
<stop offset="0.619" style="stop-color:rgb(86.274511%,64.705884%,12.156863%);stop-opacity:1;"/>
<stop offset="1" style="stop-color:rgb(87.843138%,66.274512%,13.333334%);stop-opacity:1;"/>
</linearGradient>
<radialGradient id="radial0" gradientUnits="userSpaceOnUse" cx="112.093933" cy="130.395599" fx="112.093933" fy="130.395599" r="51.335522" gradientTransform="matrix(1.061947,0,0,1.061947,0,0)">
<stop offset="0" style="stop-color:rgb(100%,81.176472%,32.941177%);stop-opacity:1;"/>
<stop offset="0.261" style="stop-color:rgb(99.215686%,79.607844%,30.19608%);stop-opacity:1;"/>
<stop offset="0.639" style="stop-color:rgb(96.862745%,75.686276%,22.745098%);stop-opacity:1;"/>
<stop offset="1" style="stop-color:rgb(94.117647%,70.588237%,12.941177%);stop-opacity:1;"/>
</radialGradient>
<linearGradient id="linear3" gradientUnits="userSpaceOnUse" x1="125.806671" y1="117.620949" x2="125.806671" y2="129.476715" gradientTransform="matrix(3.400003,0,0,3.400003,0,0)">
<stop offset="0" style="stop-color:rgb(42.745098%,45.490196%,47.450981%);stop-opacity:1;"/>
<stop offset="0.801" style="stop-color:rgb(19.607843%,20.784314%,21.960784%);stop-opacity:1;"/>
</linearGradient>
<linearGradient id="linear4" gradientUnits="userSpaceOnUse" x1="100.193329" y1="117.620949" x2="100.193329" y2="129.476715" gradientTransform="matrix(3.400003,0,0,3.400003,0,0)">
<stop offset="0" style="stop-color:rgb(42.745098%,45.490196%,47.450981%);stop-opacity:1;"/>
<stop offset="0.78" style="stop-color:rgb(19.607843%,20.784314%,21.960784%);stop-opacity:1;"/>
</linearGradient>
<linearGradient id="linear5" gradientUnits="userSpaceOnUse" x1="96.991669" y1="93.89019" x2="96.991669" y2="101.878349" gradientTransform="matrix(1.061947,0,0,1.061947,0,0)">
<stop offset="0" style="stop-color:rgb(42.745098%,45.490196%,47.450981%);stop-opacity:1;"/>
<stop offset="0.32" style="stop-color:rgb(34.901962%,37.254903%,38.82353%);stop-opacity:1;"/>
<stop offset="1" style="stop-color:rgb(19.607843%,20.784314%,21.960784%);stop-opacity:1;"/>
</linearGradient>
<linearGradient id="linear6" gradientUnits="userSpaceOnUse" x1="129.008331" y1="93.919006" x2="129.008331" y2="102.204918" gradientTransform="matrix(1.061947,0,0,1.061947,0,0)">
<stop offset="0" style="stop-color:rgb(42.745098%,45.490196%,47.450981%);stop-opacity:1;"/>
<stop offset="0.32" style="stop-color:rgb(34.901962%,37.254903%,38.82353%);stop-opacity:1;"/>
<stop offset="1" style="stop-color:rgb(19.607843%,20.784314%,21.960784%);stop-opacity:1;"/>
</linearGradient>
<linearGradient id="linear7" gradientUnits="userSpaceOnUse" x1="113.121658" y1="137.721008" x2="112.843117" y2="166.587234" gradientTransform="matrix(1.061947,0,0,1.061947,0,0)">
<stop offset="0.185" style="stop-color:rgb(42.745098%,45.490196%,47.450981%);stop-opacity:1;"/>
<stop offset="0.446" style="stop-color:rgb(34.901962%,37.254903%,38.82353%);stop-opacity:1;"/>
<stop offset="1" style="stop-color:rgb(19.607843%,20.784314%,21.960784%);stop-opacity:1;"/>
</linearGradient>
<radialGradient id="radial1" gradientUnits="userSpaceOnUse" cx="113.794006" cy="124.834297" fx="113.794006" fy="124.834297" r="28.08182" gradientTransform="matrix(3.400003,0,0,3.400003,0,0)">
<stop offset="0" style="stop-color:rgb(100%,88.627452%,60.000002%);stop-opacity:1;"/>
<stop offset="0.213" style="stop-color:rgb(100%,87.843138%,57.254905%);stop-opacity:1;"/>
<stop offset="0.522" style="stop-color:rgb(100%,85.490197%,49.803922%);stop-opacity:1;"/>
<stop offset="0.889" style="stop-color:rgb(100%,81.568629%,37.254903%);stop-opacity:1;"/>
<stop offset="1" style="stop-color:rgb(100%,80.392158%,32.941177%);stop-opacity:1;"/>
</radialGradient>
</defs>
<g id="surface3605681">
<path style=" stroke:none;fill-rule:nonzero;fill:rgb(40.000001%,40.000001%,40.000001%);fill-opacity:1;" d="M 0 120 C 0 53.726562 53.726562 0 120 0 C 186.273438 0 240 53.726562 240 120 C 240 186.273438 186.273438 240 120 240 C 53.726562 240 0 186.273438 0 120 Z M 120 225.601562 C 178.320312 225.601562 225.601562 178.320312 225.601562 120 C 225.601562 61.679688 178.320312 14.398438 120 14.398438 C 61.679688 14.398438 14.398438 61.679688 14.398438 120 C 14.398438 178.320312 61.679688 225.601562 120 225.601562 Z M 120 225.601562 "/>
<path style=" stroke:none;fill-rule:nonzero;fill:url(#linear0);" d="M 69 112.023438 C 69 82.414062 91.835938 52.800781 120 52.800781 C 148.164062 52.800781 171 82.414062 171 112.023438 C 171 135.648438 147.199219 154.800781 120 154.800781 C 92.800781 154.800781 69 135.648438 69 112.023438 Z M 69 112.023438 "/>
<path style=" stroke:none;fill-rule:nonzero;fill:url(#linear1);" d="M 144.753906 132.753906 L 145.671875 131.675781 C 150.417969 126.160156 156.792969 124.199219 160.800781 124.199219 C 165.871094 124.199219 171 128.871094 171 137.800781 C 171 149.425781 162.59375 161.601562 154 161.601562 L 138.972656 161.609375 Z M 144.753906 132.753906 "/>
<path style=" stroke:none;fill-rule:nonzero;fill:url(#linear2);" d="M 101.03125 161.609375 L 86 161.601562 C 77.40625 161.601562 69 149.425781 69 137.800781 C 69 128.871094 74.128906 124.199219 79.199219 124.199219 C 83.207031 124.199219 89.582031 126.160156 94.328125 131.675781 L 95.246094 132.753906 Z M 101.03125 161.609375 "/>
<path style=" stroke:none;fill-rule:nonzero;fill:rgb(53.333336%,20.784314%,8.235294%);fill-opacity:1;" d="M 92.800781 151.398438 L 86.125 161.601562 L 84.902344 158.414062 C 82.25 151.515625 80.742188 144.234375 80.433594 136.851562 L 79.199219 107.199219 L 92.800781 100.398438 Z M 92.800781 151.398438 "/>
<path style=" stroke:none;fill-rule:nonzero;fill:rgb(53.333336%,20.784314%,8.235294%);fill-opacity:1;" d="M 147.199219 151.398438 L 153.875 161.601562 L 155.097656 158.414062 C 157.75 151.515625 159.257812 144.234375 159.566406 136.851562 L 160.800781 107.199219 L 147.199219 100.398438 Z M 147.199219 151.398438 "/>
<path style=" stroke:none;fill-rule:nonzero;fill:url(#radial0);" d="M 86 103.800781 L 110.042969 93.601562 L 129.957031 93.601562 L 154 103.800781 C 154 103.800781 151.722656 157.597656 147.199219 168.929688 C 141.578125 183.027344 132.488281 192.199219 120 192.199219 C 107.015625 192.199219 97.707031 182.285156 92.148438 167.238281 C 88.058594 156.171875 86 103.800781 86 103.800781 Z M 86 103.800781 "/>
<path style=" stroke:none;fill-rule:nonzero;fill:rgb(100%,100%,100%);fill-opacity:1;" d="M 143.800781 127.601562 C 143.800781 133.234375 140.753906 137.800781 137 137.800781 C 133.246094 137.800781 130.199219 133.234375 130.199219 127.601562 C 130.199219 121.96875 133.246094 117.398438 137 117.398438 C 140.753906 117.398438 143.800781 121.96875 143.800781 127.601562 Z M 143.800781 127.601562 "/>
<path style=" stroke:none;fill-rule:nonzero;fill:rgb(12.941177%,58.823532%,95.294118%);fill-opacity:1;" d="M 140.398438 129.300781 C 140.398438 133.996094 138.117188 137.800781 135.300781 137.800781 C 132.484375 137.800781 130.199219 133.996094 130.199219 129.300781 C 130.199219 124.605469 132.484375 120.800781 135.300781 120.800781 C 138.117188 120.800781 140.398438 124.605469 140.398438 129.300781 Z M 140.398438 129.300781 "/>
<path style=" stroke:none;fill-rule:nonzero;fill:url(#linear3);" d="M 137 131 C 137 134.753906 135.476562 137.800781 133.601562 137.800781 C 131.722656 137.800781 130.199219 134.753906 130.199219 131 C 130.199219 127.246094 131.722656 124.199219 133.601562 124.199219 C 135.476562 124.199219 137 127.246094 137 131 Z M 137 131 "/>
<path style=" stroke:none;fill-rule:nonzero;fill:rgb(100%,100%,100%);fill-opacity:1;" d="M 109.800781 131 C 109.800781 136.632812 106.753906 141.199219 103 141.199219 C 99.246094 141.199219 96.199219 136.632812 96.199219 131 C 96.199219 125.367188 99.246094 120.800781 103 120.800781 C 106.753906 120.800781 109.800781 125.367188 109.800781 131 Z M 109.800781 131 "/>
<path style=" stroke:none;fill-rule:nonzero;fill:rgb(100%,100%,100%);fill-opacity:1;" d="M 109.800781 127.601562 C 109.800781 133.234375 106.753906 137.800781 103 137.800781 C 99.246094 137.800781 96.199219 133.234375 96.199219 127.601562 C 96.199219 121.96875 99.246094 117.398438 103 117.398438 C 106.753906 117.398438 109.800781 121.96875 109.800781 127.601562 Z M 109.800781 127.601562 "/>
<path style=" stroke:none;fill-rule:nonzero;fill:rgb(12.941177%,58.823532%,95.294118%);fill-opacity:1;" d="M 109.800781 129.300781 C 109.800781 133.996094 107.515625 137.800781 104.699219 137.800781 C 101.882812 137.800781 99.601562 133.996094 99.601562 129.300781 C 99.601562 124.605469 101.882812 120.800781 104.699219 120.800781 C 107.515625 120.800781 109.800781 124.605469 109.800781 129.300781 Z M 109.800781 129.300781 "/>
<path style=" stroke:none;fill-rule:nonzero;fill:url(#linear4);" d="M 109.800781 131 C 109.800781 134.753906 108.277344 137.800781 106.398438 137.800781 C 104.523438 137.800781 103 134.753906 103 131 C 103 127.246094 104.523438 124.199219 106.398438 124.199219 C 108.277344 124.199219 109.800781 127.246094 109.800781 131 Z M 109.800781 131 "/>
<path style=" stroke:none;fill-rule:nonzero;fill:rgb(100%,100%,100%);fill-opacity:1;" d="M 120 63 C 110.617188 63 103 70.617188 103 80 C 103 85.132812 105.277344 89.722656 108.882812 92.851562 C 111.875 95.4375 127.378906 95.742188 130.199219 93.601562 C 134.347656 90.507812 137 85.574219 137 80 C 137 70.617188 129.382812 63 120 63 Z M 113.777344 86.800781 L 113.199219 66.738281 L 120 66.398438 L 118.621094 79.011719 L 128.371094 77.660156 L 128.5 86.765625 Z M 113.777344 86.800781 "/>
<path style=" stroke:none;fill-rule:nonzero;fill:rgb(20%,76.862746%,50.588238%);fill-opacity:1;" d="M 158.621094 113.117188 C 152.300781 108.996094 146.042969 105.609375 139.59375 103.324219 C 133.152344 101.09375 126.582031 99.820312 119.996094 99.875 C 113.410156 99.804688 106.839844 101.078125 100.394531 103.308594 C 93.945312 105.59375 87.6875 108.984375 81.375 113.117188 L 81.308594 113.160156 C 79.628906 114.257812 77.535156 113.5 76.625 111.46875 C 75.9375 109.917969 76.140625 108.0625 77.015625 106.789062 C 82.089844 99.460938 88.742188 93.597656 96.15625 89.59375 C 103.566406 85.519531 111.78125 83.484375 120 83.398438 C 128.21875 83.46875 136.433594 85.503906 143.84375 89.578125 C 151.261719 93.578125 157.914062 99.449219 162.980469 106.789062 C 164.203125 108.5625 164.007812 111.203125 162.542969 112.683594 C 161.433594 113.8125 159.90625 113.945312 158.699219 113.167969 Z M 158.621094 113.117188 "/>
<path style=" stroke:none;fill-rule:nonzero;fill:url(#linear5);" d="M 92.800781 114 C 98.160156 105.941406 106.890625 104.488281 113.199219 109.824219 C 112.882812 101.472656 106.472656 99.726562 101.527344 100.601562 C 96.585938 101.476562 92.90625 105.167969 92.800781 114 Z M 92.800781 114 "/>
<path style=" stroke:none;fill-rule:nonzero;fill:url(#linear6);" d="M 147.199219 114 C 141.839844 105.941406 133.109375 104.488281 126.800781 109.824219 C 127.117188 101.472656 133.527344 99.726562 138.472656 100.601562 C 143.414062 101.472656 147.09375 105.167969 147.199219 114 Z M 147.199219 114 "/>
<path style=" stroke:none;fill-rule:nonzero;fill:url(#linear7);" d="M 150.734375 149.121094 C 147.234375 153.644531 141.113281 156.566406 134.449219 156.566406 C 131.457031 156.566406 128.671875 155.988281 126.152344 154.9375 C 126.128906 154.925781 126.105469 154.914062 126.082031 154.90625 C 122.160156 153.238281 117.835938 153.238281 113.914062 154.90625 C 113.890625 154.914062 113.867188 154.925781 113.84375 154.9375 C 111.328125 155.988281 108.539062 156.566406 105.546875 156.566406 C 98.882812 156.566406 92.558594 153.574219 89.054688 149.089844 C 86.847656 152.113281 85.996094 155.820312 85.996094 159.695312 C 85.996094 170.132812 95.144531 178.601562 106.398438 178.601562 C 111.632812 178.601562 116.394531 176.796875 119.996094 173.773438 C 123.601562 176.796875 128.359375 178.601562 133.597656 178.601562 C 144.851562 178.601562 153.996094 170.132812 153.996094 159.695312 C 154 155.820312 152.945312 152.148438 150.734375 149.121094 Z M 150.734375 149.121094 "/>
<path style=" stroke:none;fill-rule:nonzero;fill:url(#radial1);" d="M 140.398438 148 C 140.398438 157.390625 131.265625 165 120 165 C 108.734375 165 99.601562 157.390625 99.601562 148 C 99.601562 138.609375 108.734375 131 120 131 C 131.265625 131 140.398438 138.609375 140.398438 148 Z M 140.398438 148 "/>
</g>
</svg>
