<?xml version="1.0" encoding="UTF-8"?>
<svg xmlns="http://www.w3.org/2000/svg" xmlns:xlink="http://www.w3.org/1999/xlink" viewBox="0 0 240 240" width="240px" height="240px">
<defs>
<linearGradient id="linear0" gradientUnits="userSpaceOnUse" x1="113" y1="44.258331" x2="113" y2="174.412491" gradientTransform="matrix(1.061947,0,0,1.061947,0,0)">
<stop offset="0" style="stop-color:rgb(53.333336%,56.470591%,59.215689%);stop-opacity:1;"/>
<stop offset="1" style="stop-color:rgb(39.215687%,44.313726%,48.627451%);stop-opacity:1;"/>
</linearGradient>
<linearGradient id="linear1" gradientUnits="userSpaceOnUse" x1="105.184731" y1="63.253819" x2="124.615646" y2="159.65921" gradientTransform="matrix(1.061947,0,0,1.061947,0,0)">
<stop offset="0" style="stop-color:rgb(98.823529%,98.823529%,98.823529%);stop-opacity:1;"/>
<stop offset="1" style="stop-color:rgb(76.47059%,78.823531%,80.392158%);stop-opacity:1;"/>
</linearGradient>
<linearGradient id="linear2" gradientUnits="userSpaceOnUse" x1="112.980789" y1="115.69072" x2="113.176086" y2="101.139137" gradientTransform="matrix(1.061947,0,0,1.061947,0,0)">
<stop offset="0" style="stop-color:rgb(42.745098%,45.490196%,47.450981%);stop-opacity:1;"/>
<stop offset="0.019" style="stop-color:rgb(40.784314%,43.137255%,45.09804%);stop-opacity:1;"/>
<stop offset="0.105" style="stop-color:rgb(32.941177%,34.901962%,36.470589%);stop-opacity:1;"/>
<stop offset="0.207" style="stop-color:rgb(27.058825%,28.627452%,29.803923%);stop-opacity:1;"/>
<stop offset="0.333" style="stop-color:rgb(22.745098%,23.921569%,25.490198%);stop-opacity:1;"/>
<stop offset="0.51" style="stop-color:rgb(20.392157%,21.568628%,22.745098%);stop-opacity:1;"/>
<stop offset="1" style="stop-color:rgb(19.607843%,20.784314%,21.960784%);stop-opacity:1;"/>
</linearGradient>
<linearGradient id="linear3" gradientUnits="userSpaceOnUse" x1="113.505859" y1="156.329468" x2="112.913551" y2="123.435547" gradientTransform="matrix(1.061947,0,0,1.061947,0,0)">
<stop offset="0" style="stop-color:rgb(42.745098%,45.490196%,47.450981%);stop-opacity:1;"/>
<stop offset="0.019" style="stop-color:rgb(40.784314%,43.137255%,45.09804%);stop-opacity:1;"/>
<stop offset="0.105" style="stop-color:rgb(32.941177%,34.901962%,36.470589%);stop-opacity:1;"/>
<stop offset="0.207" style="stop-color:rgb(27.058825%,28.627452%,29.803923%);stop-opacity:1;"/>
<stop offset="0.333" style="stop-color:rgb(22.745098%,23.921569%,25.490198%);stop-opacity:1;"/>
<stop offset="0.51" style="stop-color:rgb(20.392157%,21.568628%,22.745098%);stop-opacity:1;"/>
<stop offset="1" style="stop-color:rgb(19.607843%,20.784314%,21.960784%);stop-opacity:1;"/>
</linearGradient>
<linearGradient id="linear4" gradientUnits="userSpaceOnUse" x1="129.235657" y1="106.674828" x2="128.845047" y2="82.06041" gradientTransform="matrix(1.061947,0,0,1.061947,0,0)">
<stop offset="0" style="stop-color:rgb(42.745098%,45.490196%,47.450981%);stop-opacity:1;"/>
<stop offset="0.019" style="stop-color:rgb(40.784314%,43.137255%,45.09804%);stop-opacity:1;"/>
<stop offset="0.105" style="stop-color:rgb(32.941177%,34.901962%,36.470589%);stop-opacity:1;"/>
<stop offset="0.207" style="stop-color:rgb(27.058825%,28.627452%,29.803923%);stop-opacity:1;"/>
<stop offset="0.333" style="stop-color:rgb(22.745098%,23.921569%,25.490198%);stop-opacity:1;"/>
<stop offset="0.51" style="stop-color:rgb(20.392157%,21.568628%,22.745098%);stop-opacity:1;"/>
<stop offset="1" style="stop-color:rgb(19.607843%,20.784314%,21.960784%);stop-opacity:1;"/>
</linearGradient>
<linearGradient id="linear5" gradientUnits="userSpaceOnUse" x1="96.866798" y1="106.758072" x2="97.062103" y2="81.266403" gradientTransform="matrix(1.061947,0,0,1.061947,0,0)">
<stop offset="0" style="stop-color:rgb(42.745098%,45.490196%,47.450981%);stop-opacity:1;"/>
<stop offset="0.019" style="stop-color:rgb(40.784314%,43.137255%,45.09804%);stop-opacity:1;"/>
<stop offset="0.105" style="stop-color:rgb(32.941177%,34.901962%,36.470589%);stop-opacity:1;"/>
<stop offset="0.207" style="stop-color:rgb(27.058825%,28.627452%,29.803923%);stop-opacity:1;"/>
<stop offset="0.333" style="stop-color:rgb(22.745098%,23.921569%,25.490198%);stop-opacity:1;"/>
<stop offset="0.51" style="stop-color:rgb(20.392157%,21.568628%,22.745098%);stop-opacity:1;"/>
<stop offset="1" style="stop-color:rgb(19.607843%,20.784314%,21.960784%);stop-opacity:1;"/>
</linearGradient>
</defs>
<g id="surface3667740">
<path style=" stroke:none;fill-rule:nonzero;fill:rgb(40.000001%,40.000001%,40.000001%);fill-opacity:1;" d="M 0 120 C 0 53.726562 53.726562 0 120 0 C 186.273438 0 240 53.726562 240 120 C 240 186.273438 186.273438 240 120 240 C 53.726562 240 0 186.273438 0 120 Z M 120 225.601562 C 178.320312 225.601562 225.601562 178.320312 225.601562 120 C 225.601562 61.679688 178.320312 14.398438 120 14.398438 C 61.679688 14.398438 14.398438 61.679688 14.398438 120 C 14.398438 178.320312 61.679688 225.601562 120 225.601562 Z M 120 225.601562 "/>
<path style=" stroke:none;fill-rule:nonzero;fill:url(#linear0);" d="M 167.601562 152.398438 C 167.601562 147.355469 179.21875 135.371094 179.21875 122.367188 C 179.21875 86.25 160.800781 47 120 47 C 79.199219 47 62.199219 87.800781 62.199219 125.199219 C 62.199219 138.203125 75.800781 154.15625 75.800781 159.199219 C 75.800781 164.246094 58.800781 169.898438 58.800781 175.632812 C 58.800781 181.367188 65.601562 183 71.550781 183 L 168.449219 183 C 174.398438 183 181.199219 178.53125 181.199219 172.800781 C 181.199219 167.066406 167.601562 157.445312 167.601562 152.398438 Z M 167.601562 152.398438 "/>
<path style=" stroke:none;fill-rule:nonzero;fill:url(#linear1);" d="M 154 91.199219 C 154 91.199219 148.257812 60.601562 120 60.601562 C 91.742188 60.601562 86 91.199219 86 91.199219 C 86 91.199219 75.800781 96.589844 75.800781 108.199219 C 75.800781 121.171875 86.402344 125.875 89.398438 128.601562 C 102.875 140.839844 99.601562 176.199219 120 176.199219 C 140.398438 176.199219 137.125 140.839844 150.601562 128.601562 C 153.597656 125.875 164.199219 121.171875 164.199219 108.199219 C 164.199219 96.589844 154 91.199219 154 91.199219 Z M 154 91.199219 "/>
<path style=" stroke:none;fill-rule:nonzero;fill:url(#linear2);" d="M 126.347656 122.773438 C 129.578125 122.773438 123.691406 107.636719 119.996094 107.636719 C 116.296875 107.636719 110.738281 122.773438 113.429688 122.773438 C 116.65625 122.773438 118.386719 119.46875 120 119.46875 C 121.613281 119.46875 124.191406 122.773438 126.347656 122.773438 Z M 126.347656 122.773438 "/>
<path style=" stroke:none;fill-rule:nonzero;fill:url(#linear3);" d="M 109.230469 136.183594 C 109.230469 141.488281 113.808594 141.277344 114.347656 149.355469 C 114.347656 157.964844 116.765625 166.851562 120 166.851562 C 123.765625 166.851562 125.652344 159.582031 126.191406 150.96875 C 126.730469 139.664062 130.769531 140.390625 130.769531 136.183594 C 130.769531 134.058594 126.730469 129.167969 120.273438 129.167969 C 113.816406 129.167969 109.230469 132.953125 109.230469 136.183594 Z M 109.230469 136.183594 "/>
<path style=" stroke:none;fill-rule:nonzero;fill:url(#linear4);" d="M 141.421875 113.019531 C 145.769531 113.019531 150.113281 108.667969 148.183594 103.835938 C 146.734375 101.421875 144.316406 100.941406 141.898438 99.972656 C 138.519531 98.039062 135.617188 95.144531 134.167969 91.277344 C 132.71875 88.382812 130.789062 84.996094 127.882812 86.449219 C 123.535156 88.382812 125.953125 96.597656 126.921875 99.980469 C 129.824219 106.734375 134.175781 113.019531 141.421875 113.019531 Z M 141.421875 113.019531 "/>
<path style=" stroke:none;fill-rule:nonzero;fill:url(#linear5);" d="M 113.070312 99.972656 C 114.03125 96.59375 116.449219 88.375 112.109375 86.445312 C 109.210938 84.996094 107.28125 88.375 105.824219 91.269531 C 104.378906 95.136719 101.476562 98.035156 98.09375 99.964844 C 95.675781 100.925781 93.265625 101.414062 91.8125 103.832031 C 89.882812 108.664062 94.226562 113.015625 98.578125 113.015625 C 105.824219 113.019531 110.175781 106.734375 113.070312 99.972656 Z M 113.070312 99.972656 "/>
</g>
</svg>
