<?xml version="1.0" encoding="UTF-8"?>
<svg xmlns="http://www.w3.org/2000/svg" xmlns:xlink="http://www.w3.org/1999/xlink" viewBox="0 0 240 240" width="240px" height="240px">
<defs>
<linearGradient id="linear0" gradientUnits="userSpaceOnUse" x1="112.999252" y1="47.365829" x2="112.999252" y2="122.27523" gradientTransform="matrix(1.061947,0,0,1.061947,0,0)">
<stop offset="0" style="stop-color:rgb(95.686275%,30.980393%,35.294119%);stop-opacity:1;"/>
<stop offset="0.443" style="stop-color:rgb(93.333334%,23.921569%,29.019609%);stop-opacity:1;"/>
<stop offset="1" style="stop-color:rgb(89.803922%,12.54902%,18.82353%);stop-opacity:1;"/>
</linearGradient>
<linearGradient id="linear1" gradientUnits="userSpaceOnUse" x1="71.31675" y1="130.602753" x2="55.708618" y2="130.602753" gradientTransform="matrix(1.061947,0,0,1.061947,0,0)">
<stop offset="0" style="stop-color:rgb(76.862746%,56.078434%,4.705882%);stop-opacity:1;"/>
<stop offset="0.251" style="stop-color:rgb(81.960785%,60.784316%,8.627451%);stop-opacity:1;"/>
<stop offset="0.619" style="stop-color:rgb(86.274511%,64.705884%,12.156863%);stop-opacity:1;"/>
<stop offset="1" style="stop-color:rgb(87.843138%,66.274512%,13.333334%);stop-opacity:1;"/>
</linearGradient>
<linearGradient id="linear2" gradientUnits="userSpaceOnUse" x1="154.140656" y1="130.602753" x2="170.052948" y2="130.602753" gradientTransform="matrix(1.061947,0,0,1.061947,0,0)">
<stop offset="0" style="stop-color:rgb(76.862746%,56.078434%,4.705882%);stop-opacity:1;"/>
<stop offset="0.251" style="stop-color:rgb(81.960785%,60.784316%,8.627451%);stop-opacity:1;"/>
<stop offset="0.619" style="stop-color:rgb(86.274511%,64.705884%,12.156863%);stop-opacity:1;"/>
<stop offset="1" style="stop-color:rgb(87.843138%,66.274512%,13.333334%);stop-opacity:1;"/>
</linearGradient>
<radialGradient id="radial0" gradientUnits="userSpaceOnUse" cx="112.999252" cy="132.210007" fx="112.999252" fy="132.210007" r="43.251308" gradientTransform="matrix(1.061947,0,0,1.061947,0,0)">
<stop offset="0" style="stop-color:rgb(100%,81.176472%,32.941177%);stop-opacity:1;"/>
<stop offset="0.261" style="stop-color:rgb(99.215686%,79.607844%,30.19608%);stop-opacity:1;"/>
<stop offset="0.639" style="stop-color:rgb(96.862745%,75.686276%,22.745098%);stop-opacity:1;"/>
<stop offset="1" style="stop-color:rgb(94.117647%,70.588237%,12.941177%);stop-opacity:1;"/>
</radialGradient>
<linearGradient id="linear3" gradientUnits="userSpaceOnUse" x1="125.805908" y1="119.425743" x2="125.805908" y2="129.514206" gradientTransform="matrix(3.400003,0,0,3.400003,0,0)">
<stop offset="0" style="stop-color:rgb(42.745098%,45.490196%,47.450981%);stop-opacity:1;"/>
<stop offset="1" style="stop-color:rgb(19.607843%,20.784314%,21.960784%);stop-opacity:1;"/>
</linearGradient>
<linearGradient id="linear4" gradientUnits="userSpaceOnUse" x1="100.192581" y1="119.505791" x2="100.192581" y2="129.142807" gradientTransform="matrix(3.400003,0,0,3.400003,0,0)">
<stop offset="0" style="stop-color:rgb(42.745098%,45.490196%,47.450981%);stop-opacity:1;"/>
<stop offset="1" style="stop-color:rgb(19.607843%,20.784314%,21.960784%);stop-opacity:1;"/>
</linearGradient>
<linearGradient id="linear5" gradientUnits="userSpaceOnUse" x1="130.608414" y1="98.307549" x2="130.608414" y2="112.772682" gradientTransform="matrix(1.061947,0,0,1.061947,0,0)">
<stop offset="0" style="stop-color:rgb(42.745098%,45.490196%,47.450981%);stop-opacity:1;"/>
<stop offset="1" style="stop-color:rgb(19.607843%,20.784314%,21.960784%);stop-opacity:1;"/>
</linearGradient>
<linearGradient id="linear6" gradientUnits="userSpaceOnUse" x1="95.390083" y1="98.307549" x2="95.390083" y2="112.772682" gradientTransform="matrix(1.061947,0,0,1.061947,0,0)">
<stop offset="0" style="stop-color:rgb(42.745098%,45.490196%,47.450981%);stop-opacity:1;"/>
<stop offset="1" style="stop-color:rgb(19.607843%,20.784314%,21.960784%);stop-opacity:1;"/>
</linearGradient>
<linearGradient id="linear7" gradientUnits="userSpaceOnUse" x1="112.992844" y1="122.585793" x2="112.992844" y2="159.885208" gradientTransform="matrix(1.061947,0,0,1.061947,0,0)">
<stop offset="0" style="stop-color:rgb(42.745098%,45.490196%,47.450981%);stop-opacity:1;"/>
<stop offset="1" style="stop-color:rgb(19.607843%,20.784314%,21.960784%);stop-opacity:1;"/>
</linearGradient>
<radialGradient id="radial1" gradientUnits="userSpaceOnUse" cx="112.829559" cy="124.465172" fx="112.829559" fy="124.465172" r="28.46282" gradientTransform="matrix(1.061947,0,0,1.061947,0,0)">
<stop offset="0" style="stop-color:rgb(100%,88.627452%,60.000002%);stop-opacity:1;"/>
<stop offset="0.213" style="stop-color:rgb(100%,87.843138%,57.254905%);stop-opacity:1;"/>
<stop offset="0.522" style="stop-color:rgb(100%,85.490197%,49.803922%);stop-opacity:1;"/>
<stop offset="0.889" style="stop-color:rgb(100%,81.568629%,37.254903%);stop-opacity:1;"/>
<stop offset="1" style="stop-color:rgb(100%,80.392158%,32.941177%);stop-opacity:1;"/>
</radialGradient>
</defs>
<g id="surface3607014">
<path style=" stroke:none;fill-rule:nonzero;fill:rgb(40.000001%,40.000001%,40.000001%);fill-opacity:1;" d="M 0 120 C 0 53.726562 53.726562 0 120 0 C 186.273438 0 240 53.726562 240 120 C 240 186.273438 186.273438 240 120 240 C 53.726562 240 0 186.273438 0 120 Z M 120 225.601562 C 178.320312 225.601562 225.601562 178.320312 225.601562 120 C 225.601562 61.679688 178.320312 14.398438 120 14.398438 C 61.679688 14.398438 14.398438 61.679688 14.398438 120 C 14.398438 178.320312 61.679688 225.601562 120 225.601562 Z M 120 225.601562 "/>
<path style=" stroke:none;fill-rule:nonzero;fill:url(#linear0);" d="M 72.398438 126.800781 C 72.171875 126.523438 62.199219 118.449219 62.199219 106.398438 C 62.199219 92.152344 82.183594 52 120.316406 52 C 158.035156 52 177.800781 92.257812 177.800781 106.398438 C 177.800781 119.316406 168.152344 126.171875 167.597656 126.800781 L 160.800781 126.800781 C 160.800781 126.800781 166.324219 92.800781 120 92.800781 C 73.675781 92.800781 79.199219 126.800781 79.199219 126.800781 Z M 72.398438 126.800781 "/>
<path style=" stroke:none;fill-rule:nonzero;fill:url(#linear1);" d="M 77.230469 157.398438 C 76.929688 157.398438 76.621094 157.398438 76.300781 157.390625 L 75.800781 157.386719 C 67.203125 157.386719 58.800781 145.210938 58.800781 133.585938 C 58.800781 124.65625 63.929688 119.988281 69 119.988281 C 73.011719 119.988281 79.378906 121.945312 84.125 127.464844 L 85.046875 128.539062 L 82.511719 156.527344 L 80.175781 157.136719 C 79.371094 157.351562 78.390625 157.398438 77.230469 157.398438 Z M 77.230469 157.398438 "/>
<path style=" stroke:none;fill-rule:nonzero;fill:url(#linear2);" d="M 159.820312 157.140625 L 157.484375 156.53125 L 154.949219 128.542969 L 155.871094 127.464844 C 160.617188 121.949219 166.988281 119.988281 170.996094 119.988281 C 176.066406 119.988281 181.195312 124.660156 181.195312 133.589844 C 181.195312 145.214844 172.792969 157.390625 164.195312 157.390625 L 163.695312 157.394531 C 163.375 157.398438 163.066406 157.398438 162.769531 157.398438 C 161.609375 157.398438 160.628906 157.351562 159.820312 157.140625 Z M 159.820312 157.140625 "/>
<path style=" stroke:none;fill-rule:nonzero;fill:rgb(100%,100%,100%);fill-opacity:1;" d="M 120 62.199219 C 110.613281 62.199219 103 69.8125 103 79.199219 C 103 88.585938 110.613281 96.199219 120 96.199219 C 129.386719 96.199219 137 88.585938 137 79.199219 C 137 69.8125 129.386719 62.199219 120 62.199219 Z M 120 62.199219 "/>
<path style=" stroke:none;fill-rule:nonzero;fill:rgb(95.686275%,26.274511%,21.176471%);fill-opacity:1;" d="M 111.246094 82.371094 C 111.246094 82.371094 106.523438 79.992188 106.398438 79.652344 C 106.277344 79.308594 114.347656 65.710938 114.347656 65.710938 L 119.9375 71.039062 L 125.777344 65.601562 L 133.597656 79.652344 L 128.753906 82.601562 L 124.90625 71.269531 L 120.1875 76.59375 L 114.96875 71.15625 Z M 111.246094 82.371094 "/>
<path style=" stroke:none;fill-rule:nonzero;fill:url(#radial0);" d="M 120 188 C 110.730469 188 106.203125 185.265625 101.824219 182.625 C 100.652344 181.921875 99.449219 181.191406 98.089844 180.484375 C 97.359375 180.097656 96.472656 179.703125 95.496094 179.273438 C 88.476562 176.128906 75.800781 169.070312 75.800781 150.601562 C 75.800781 146.820312 76.375 142.28125 77.222656 137.203125 C 77.816406 133.667969 79.199219 128.277344 79.199219 126.800781 C 79.199219 124.363281 77.523438 113.917969 75.800781 109.800781 C 75.800781 109.800781 87.417969 92.800781 120 92.800781 C 152.582031 92.800781 160.800781 109.800781 160.800781 109.800781 L 164.199219 109.800781 C 162.476562 113.917969 160.800781 124.363281 160.800781 126.800781 C 160.800781 128.277344 162.179688 133.667969 162.769531 137.203125 C 163.621094 142.28125 164.199219 146.820312 164.199219 150.601562 C 164.199219 169.070312 151.515625 176.128906 144.492188 179.273438 C 143.515625 179.710938 142.632812 180.101562 141.902344 180.484375 C 140.546875 181.191406 139.335938 181.921875 138.164062 182.628906 C 133.792969 185.265625 129.265625 188 120 188 Z M 120 188 "/>
<path style=" stroke:none;fill-rule:nonzero;fill:rgb(100%,100%,100%);fill-opacity:1;" d="M 143.800781 128.5 C 143.800781 133.195312 140.753906 137 137 137 C 133.242188 137 130.199219 133.195312 130.199219 128.5 C 130.199219 123.804688 133.242188 120 137 120 C 140.753906 120 143.800781 123.804688 143.800781 128.5 Z M 143.800781 128.5 "/>
<path style=" stroke:none;fill-rule:nonzero;fill:rgb(100%,100%,100%);fill-opacity:1;" d="M 109.800781 128.5 C 109.800781 133.195312 106.753906 137 103 137 C 99.242188 137 96.199219 133.195312 96.199219 128.5 C 96.199219 123.804688 99.242188 120 103 120 C 106.753906 120 109.800781 123.804688 109.800781 128.5 Z M 109.800781 128.5 "/>
<path style=" stroke:none;fill-rule:nonzero;fill:rgb(20.784314%,75.686276%,94.509804%);fill-opacity:1;" d="M 140.398438 130.199219 C 140.398438 133.957031 138.117188 137 135.300781 137 C 132.484375 137 130.199219 133.957031 130.199219 130.199219 C 130.199219 126.445312 132.484375 123.398438 135.300781 123.398438 C 138.117188 123.398438 140.398438 126.445312 140.398438 130.199219 Z M 140.398438 130.199219 "/>
<path style=" stroke:none;fill-rule:nonzero;fill:rgb(20.784314%,75.686276%,94.509804%);fill-opacity:1;" d="M 109.800781 130.199219 C 109.800781 133.957031 107.515625 137 104.699219 137 C 101.882812 137 99.597656 133.957031 99.597656 130.199219 C 99.597656 126.445312 101.882812 123.398438 104.699219 123.398438 C 107.515625 123.398438 109.800781 126.445312 109.800781 130.199219 Z M 109.800781 130.199219 "/>
<path style=" stroke:none;fill-rule:nonzero;fill:url(#linear3);" d="M 137 131.898438 C 137 134.71875 135.476562 137 133.597656 137 C 131.722656 137 130.199219 134.71875 130.199219 131.898438 C 130.199219 129.082031 131.722656 126.800781 133.597656 126.800781 C 135.476562 126.800781 137 129.082031 137 131.898438 Z M 137 131.898438 "/>
<path style=" stroke:none;fill-rule:nonzero;fill:url(#linear4);" d="M 109.800781 131.898438 C 109.800781 134.71875 108.277344 137 106.398438 137 C 104.523438 137 103 134.71875 103 131.898438 C 103 129.082031 104.523438 126.800781 106.398438 126.800781 C 108.277344 126.800781 109.800781 129.082031 109.800781 131.898438 Z M 109.800781 131.898438 "/>
<path style=" stroke:none;fill-rule:nonzero;fill:url(#linear5);" d="M 150.597656 116.601562 C 150.597656 116.601562 146.179688 113.128906 140.625 113.128906 C 135.066406 113.128906 126.800781 120 126.800781 120 C 126.800781 120 130.980469 106.476562 140.128906 106.476562 C 149.273438 106.476562 150.597656 116.601562 150.597656 116.601562 Z M 150.597656 116.601562 "/>
<path style=" stroke:none;fill-rule:nonzero;fill:url(#linear6);" d="M 99.871094 106.476562 C 109.015625 106.476562 113.199219 120 113.199219 120 C 113.199219 120 104.929688 113.128906 99.375 113.128906 C 93.820312 113.128906 89.398438 116.601562 89.398438 116.601562 C 89.398438 116.601562 90.726562 106.476562 99.871094 106.476562 Z M 99.871094 106.476562 "/>
<path style=" stroke:none;fill-rule:nonzero;fill:url(#linear7);" d="M 153.996094 152.082031 C 153.996094 156.488281 150.347656 159.90625 147.578125 159.90625 C 146.71875 165.226562 143.34375 167.488281 139.9375 167.488281 C 136.53125 167.488281 134.742188 166.289062 134.742188 166.289062 C 134.742188 166.289062 131.289062 170.882812 126.792969 170.882812 C 122.828125 170.882812 119.921875 168.871094 119.921875 168.871094 C 119.921875 168.871094 117.296875 171 113.578125 171 C 108.792969 171 105.652344 166.59375 105.257812 166.210938 C 105.027344 166.316406 103.273438 167.5 100.257812 167.5 C 93.285156 167.5 92.558594 159.996094 92.558594 159.996094 C 92.558594 159.996094 85.992188 159.601562 85.992188 151.851562 C 85.992188 145.277344 88.050781 143.796875 88.050781 143.796875 C 88.050781 143.796875 89.226562 148.609375 102.484375 150.933594 C 104.085938 157.492188 111.3125 162.445312 119.992188 162.445312 C 128.664062 162.445312 135.882812 157.503906 137.496094 150.953125 C 144.5625 149.746094 149.3125 147.535156 152.011719 143.878906 C 152.015625 143.878906 153.996094 145.472656 153.996094 152.082031 Z M 153.996094 152.082031 "/>
<path style=" stroke:none;fill-rule:nonzero;fill:url(#radial1);" d="M 120 164.199219 C 108.75 164.199219 99.597656 156.574219 99.597656 147.199219 C 99.597656 137.828125 108.75 130.199219 120 130.199219 C 131.25 130.199219 140.398438 137.828125 140.398438 147.199219 C 140.398438 156.574219 131.25 164.199219 120 164.199219 Z M 120 164.199219 "/>
<path style=" stroke:none;fill-rule:nonzero;fill:rgb(58.039218%,22.352941%,12.941177%);fill-opacity:1;" d="M 164.199219 113.199219 C 164.199219 113.199219 163.792969 143.902344 164.023438 146.8125 C 159.785156 136.53125 154 133.601562 154 133.601562 L 154 113.199219 Z M 75.800781 113.199219 C 75.800781 113.199219 76.203125 143.902344 75.976562 146.8125 C 80.210938 136.53125 86 133.601562 86 133.601562 L 86 113.199219 Z M 75.800781 113.199219 "/>
<path style=" stroke:none;fill-rule:nonzero;fill:rgb(100%,45.882353%,49.411765%);fill-opacity:1;" d="M 72.398438 106.398438 C 72.398438 112.601562 75.800781 116.601562 75.800781 116.601562 C 80.898438 124.464844 86 116.601562 86 116.601562 C 86.148438 116.464844 96.695312 103 120 103 C 143.304688 103 153.847656 116.464844 154 116.601562 C 154 116.601562 159.097656 124.464844 164.199219 116.601562 C 164.199219 116.601562 167.597656 112.601562 167.597656 106.398438 C 167.597656 103.207031 157.425781 82.601562 120 82.601562 C 82.570312 82.601562 72.398438 103.207031 72.398438 106.398438 Z M 72.398438 106.398438 "/>
</g>
</svg>
