<?xml version="1.0" encoding="UTF-8"?>
<svg xmlns="http://www.w3.org/2000/svg" xmlns:xlink="http://www.w3.org/1999/xlink" viewBox="0 0 240 240" width="240px" height="240px">
<defs>
<linearGradient id="linear0" gradientUnits="userSpaceOnUse" x1="156.856995" y1="117.694908" x2="164.766357" y2="117.694908" gradientTransform="matrix(1.061947,0,0,1.061947,0,0)">
<stop offset="0" style="stop-color:rgb(76.862746%,56.078434%,4.705882%);stop-opacity:1;"/>
<stop offset="0.251" style="stop-color:rgb(81.960785%,60.784316%,8.627451%);stop-opacity:1;"/>
<stop offset="0.619" style="stop-color:rgb(86.274511%,64.705884%,12.156863%);stop-opacity:1;"/>
<stop offset="1" style="stop-color:rgb(87.843138%,66.274512%,13.333334%);stop-opacity:1;"/>
</linearGradient>
<linearGradient id="linear1" gradientUnits="userSpaceOnUse" x1="69.215523" y1="117.694908" x2="61.30304" y2="117.694908" gradientTransform="matrix(1.061947,0,0,1.061947,0,0)">
<stop offset="0" style="stop-color:rgb(76.862746%,56.078434%,4.705882%);stop-opacity:1;"/>
<stop offset="0.251" style="stop-color:rgb(81.960785%,60.784316%,8.627451%);stop-opacity:1;"/>
<stop offset="0.619" style="stop-color:rgb(86.274511%,64.705884%,12.156863%);stop-opacity:1;"/>
<stop offset="1" style="stop-color:rgb(87.843138%,66.274512%,13.333334%);stop-opacity:1;"/>
</linearGradient>
<radialGradient id="radial0" gradientUnits="userSpaceOnUse" cx="113.037193" cy="118.636307" fx="113.037193" fy="118.636307" r="50.819881" gradientTransform="matrix(1.061947,0,0,1.061947,0,0)">
<stop offset="0" style="stop-color:rgb(100%,81.176472%,32.941177%);stop-opacity:1;"/>
<stop offset="0.261" style="stop-color:rgb(99.215686%,79.607844%,30.19608%);stop-opacity:1;"/>
<stop offset="0.639" style="stop-color:rgb(96.862745%,75.686276%,22.745098%);stop-opacity:1;"/>
<stop offset="1" style="stop-color:rgb(94.117647%,70.588237%,12.941177%);stop-opacity:1;"/>
</radialGradient>
<linearGradient id="linear2" gradientUnits="userSpaceOnUse" x1="113.034691" y1="135.006607" x2="113.034691" y2="180.666183" gradientTransform="matrix(1.061947,0,0,1.061947,0,0)">
<stop offset="0" style="stop-color:rgb(76.078433%,40.392157%,8.235294%);stop-opacity:1;"/>
<stop offset="0.508" style="stop-color:rgb(72.156864%,33.333334%,8.235294%);stop-opacity:1;"/>
<stop offset="1" style="stop-color:rgb(67.843139%,24.705882%,8.627451%);stop-opacity:1;"/>
</linearGradient>
<linearGradient id="linear3" gradientUnits="userSpaceOnUse" x1="113.103554" y1="71.969612" x2="113.103554" y2="100.583527" gradientTransform="matrix(1.061947,0,0,1.061947,0,0)">
<stop offset="0" style="stop-color:rgb(42.745098%,45.490196%,47.450981%);stop-opacity:1;"/>
<stop offset="1" style="stop-color:rgb(19.607843%,20.784314%,21.960784%);stop-opacity:1;"/>
</linearGradient>
<linearGradient id="linear4" gradientUnits="userSpaceOnUse" x1="113.034691" y1="47.775169" x2="113.034691" y2="84.924431" gradientTransform="matrix(1.061947,0,0,1.061947,0,0)">
<stop offset="0" style="stop-color:rgb(42.745098%,45.490196%,47.450981%);stop-opacity:1;"/>
<stop offset="1" style="stop-color:rgb(19.607843%,20.784314%,21.960784%);stop-opacity:1;"/>
</linearGradient>
<linearGradient id="linear5" gradientUnits="userSpaceOnUse" x1="113.034691" y1="103.428642" x2="113.034691" y2="109.99839" gradientTransform="matrix(1.061947,0,0,1.061947,0,0)">
<stop offset="0" style="stop-color:rgb(42.745098%,45.490196%,47.450981%);stop-opacity:1;"/>
<stop offset="0.22" style="stop-color:rgb(34.509805%,36.470589%,38.431373%);stop-opacity:1;"/>
<stop offset="0.503" style="stop-color:rgb(26.274511%,27.843139%,29.411766%);stop-opacity:1;"/>
<stop offset="0.769" style="stop-color:rgb(21.176471%,22.745098%,23.921569%);stop-opacity:1;"/>
<stop offset="1" style="stop-color:rgb(19.607843%,20.784314%,21.960784%);stop-opacity:1;"/>
</linearGradient>
<linearGradient id="linear6" gradientUnits="userSpaceOnUse" x1="113.078506" y1="102.977928" x2="113.078506" y2="125.964211" gradientTransform="matrix(1.061947,0,0,1.061947,0,0)">
<stop offset="0" style="stop-color:rgb(42.745098%,45.490196%,47.450981%);stop-opacity:1;"/>
<stop offset="0.22" style="stop-color:rgb(34.509805%,36.470589%,38.431373%);stop-opacity:1;"/>
<stop offset="0.503" style="stop-color:rgb(26.274511%,27.843139%,29.411766%);stop-opacity:1;"/>
<stop offset="0.769" style="stop-color:rgb(21.176471%,22.745098%,23.921569%);stop-opacity:1;"/>
<stop offset="1" style="stop-color:rgb(19.607843%,20.784314%,21.960784%);stop-opacity:1;"/>
</linearGradient>
</defs>
<g id="surface3666584">
<path style=" stroke:none;fill-rule:nonzero;fill:rgb(40.000001%,40.000001%,40.000001%);fill-opacity:1;" d="M 3.601562 120 C 3.601562 55.714844 55.714844 3.601562 120 3.601562 C 184.285156 3.601562 236.398438 55.714844 236.398438 120 C 236.398438 184.285156 184.285156 236.398438 120 236.398438 C 55.714844 236.398438 3.601562 184.285156 3.601562 120 Z M 120 222 C 176.332031 222 222 176.332031 222 120 C 222 63.667969 176.332031 18 120 18 C 63.667969 18 18 63.667969 18 120 C 18 176.332031 63.667969 222 120 222 Z M 120 222 "/>
<path style=" stroke:none;fill-rule:nonzero;fill:url(#linear0);" d="M 166.566406 110.027344 L 163.246094 110.027344 L 163.246094 139.941406 L 167.675781 139.941406 C 170.917969 139.941406 173.6875 137.605469 174.230469 134.414062 L 176.402344 121.675781 C 177.4375 115.585938 172.742188 110.027344 166.566406 110.027344 Z M 166.566406 110.027344 "/>
<path style=" stroke:none;fill-rule:nonzero;fill:url(#linear1);" d="M 73.507812 110.027344 L 76.828125 110.027344 L 76.828125 139.941406 L 72.394531 139.941406 C 69.15625 139.941406 66.386719 137.605469 65.839844 134.414062 L 63.671875 121.675781 C 62.636719 115.585938 67.332031 110.027344 73.507812 110.027344 Z M 73.507812 110.027344 "/>
<path style=" stroke:none;fill-rule:nonzero;fill:url(#radial0);" d="M 120.035156 65.488281 C 97.074219 65.488281 73.503906 74.796875 73.503906 124.429688 C 73.503906 128.402344 73.503906 142.792969 73.503906 147.039062 C 73.503906 164.761719 101.421875 186.476562 120.035156 186.476562 C 138.648438 186.476562 166.570312 164.761719 166.570312 147.039062 C 166.570312 142.792969 166.570312 128.402344 166.570312 124.429688 C 166.570312 74.796875 142.996094 65.488281 120.035156 65.488281 Z M 120.035156 65.488281 "/>
<path style=" stroke:none;fill-rule:nonzero;fill:url(#linear2);" d="M 130.007812 143.265625 L 110.066406 143.265625 C 102.753906 143.265625 96.769531 149.25 96.769531 156.5625 L 96.769531 171.1875 C 96.769531 181.492188 105.078125 189.800781 115.382812 189.800781 L 124.691406 189.800781 C 134.992188 189.800781 143.304688 181.492188 143.304688 171.1875 L 143.304688 156.5625 C 143.304688 149.25 137.320312 143.265625 130.007812 143.265625 Z M 136.65625 166.535156 L 126.683594 176.503906 L 126.683594 169.859375 C 126.683594 166.203125 123.691406 163.210938 120.035156 163.210938 C 116.378906 163.210938 113.390625 166.203125 113.390625 169.859375 L 113.390625 176.503906 L 103.417969 166.535156 L 103.417969 163.210938 C 103.417969 159.554688 106.410156 156.5625 110.066406 156.5625 L 130.007812 156.5625 C 133.664062 156.5625 136.65625 159.554688 136.65625 163.210938 Z M 136.65625 166.535156 "/>
<path style=" stroke:none;fill-rule:nonzero;fill:url(#linear3);" d="M 76.828125 90.085938 L 49.238281 90.085938 C 46.914062 90.085938 46.246094 92.746094 47.910156 94.074219 C 56.550781 98.726562 82.476562 106.703125 120.035156 106.703125 C 157.597656 106.703125 183.523438 98.726562 192.164062 94.074219 C 194.160156 92.746094 193.160156 90.085938 190.835938 90.085938 Z M 76.828125 90.085938 "/>
<path style=" stroke:none;fill-rule:nonzero;fill:url(#linear4);" d="M 160.585938 54.1875 C 160.253906 51.863281 159.257812 50.199219 156.597656 50.199219 C 149.617188 50.199219 134.328125 50.199219 120.035156 50.199219 C 105.746094 50.199219 92.449219 50.199219 83.476562 50.199219 C 80.816406 50.199219 79.820312 51.863281 79.484375 54.1875 L 76.828125 90.085938 L 163.246094 90.085938 Z M 160.585938 54.1875 "/>
<path style=" stroke:none;fill-rule:nonzero;fill:rgb(20%,76.862746%,50.588238%);fill-opacity:1;" d="M 77.824219 76.789062 L 76.828125 90.085938 L 163.246094 90.085938 L 162.25 76.789062 Z M 77.824219 76.789062 "/>
<path style=" stroke:none;fill-rule:nonzero;fill:url(#linear5);" d="M 73.722656 116.675781 L 166.351562 116.675781 C 166.226562 114.359375 166.035156 112.148438 165.792969 110.027344 L 74.28125 110.027344 C 74.039062 112.148438 73.847656 114.359375 73.722656 116.675781 Z M 73.722656 116.675781 "/>
<path style=" stroke:none;fill-rule:nonzero;fill:url(#linear6);" d="M 81.914062 110.027344 C 79.359375 110.027344 77.515625 112.46875 78.210938 114.925781 L 81.8125 127.644531 C 82.808594 130.96875 85.800781 133.296875 89.457031 133.296875 L 104.414062 133.296875 C 107.738281 133.296875 111.0625 131.300781 112.390625 128.308594 C 112.390625 128.308594 115.714844 121.996094 118.042969 117.671875 C 119.039062 115.679688 121.699219 116.011719 122.695312 117.671875 L 128.015625 128.308594 C 129.675781 131.300781 132.667969 133.296875 135.992188 133.296875 L 150.949219 133.296875 C 154.605469 133.296875 157.597656 130.96875 158.59375 127.644531 L 161.96875 114.859375 C 162.613281 112.417969 160.773438 110.027344 158.25 110.027344 Z M 81.914062 110.027344 "/>
</g>
</svg>
